<svg width="36" height="36" viewBox="0 0 36 36" fill="none" xmlns="http://www.w3.org/2000/svg">
<path d="M18.0003 2.39003C4.08842 2.38553 -2.87953 19.1963 6.95484 29.0299C9.13808 31.2128 11.9199 32.6996 14.9485 33.3021C17.9771 33.9046 21.1164 33.5958 23.9694 32.4147C26.8223 31.2337 29.2609 29.2334 30.9766 26.6669C32.6923 24.1004 33.608 21.083 33.608 17.9962C33.608 9.37927 26.6221 2.39303 18.0003 2.39003ZM9.15943 10.1744C9.9113 6.27694 15.0018 5.23283 17.2274 8.51968C19.453 11.805 16.5941 16.1435 12.6952 15.3934C12.1201 15.283 11.5724 15.0604 11.0835 14.7383C10.5945 14.4162 10.1738 14.0009 9.84545 13.5162C9.51709 13.0316 9.2875 12.4869 9.16979 11.9135C9.05208 11.3401 9.04856 10.7491 9.15943 10.1744ZM15.6456 23.6578C14.8893 27.5537 9.79725 28.5903 7.57615 25.302C5.35505 22.0136 8.21697 17.6812 12.1159 18.4327C12.691 18.5438 13.2386 18.7671 13.7274 19.0899C14.2161 19.4127 14.6364 19.8286 14.9643 20.3139C15.2921 20.7992 15.521 21.3443 15.6379 21.918C15.7548 22.4918 15.7575 23.083 15.6456 23.6578ZM17.5366 20.0499C15.8077 19.7154 15.3425 17.4591 16.7997 16.469C18.2554 15.4789 20.1854 16.7391 19.8612 18.4702C19.8132 18.7268 19.7148 18.9713 19.5719 19.1897C19.4289 19.4082 19.2442 19.5962 19.0283 19.743C18.8124 19.8898 18.5696 19.9925 18.3138 20.0452C18.0581 20.0978 17.7929 20.0994 17.5366 20.0499ZM26.8382 25.8075C26.0863 29.7049 20.9958 30.7475 18.7702 27.4622C16.5431 24.1753 19.402 19.8384 23.3024 20.587C23.8777 20.6974 24.4255 20.92 24.9146 21.2422C25.4036 21.5644 25.8244 21.9798 26.1528 22.4647C26.4812 22.9495 26.7107 23.4943 26.8283 24.0679C26.9459 24.6415 26.9493 25.2326 26.8382 25.8075ZM23.8862 17.5536C19.9873 16.8021 18.9443 11.709 22.2324 9.48278C25.519 7.25805 29.8577 10.1158 29.1088 14.0133C28.999 14.5888 28.7768 15.1371 28.4547 15.6266C28.1327 16.1162 27.7173 16.5375 27.2322 16.8663C26.7471 17.1952 26.2018 17.4252 25.6277 17.5431C25.0535 17.661 24.4618 17.6646 23.8862 17.5536ZM20.385 34.8985L23.7827 35.8136C25.2114 36.1925 26.7321 35.9888 28.0106 35.2473C29.2891 34.5058 30.2207 33.2871 30.6005 31.8592L31.561 28.2558C28.8569 31.8564 24.8397 34.2438 20.3835 34.8985H20.385ZM31.8552 5.39785L28.3089 4.45425C30.101 5.83221 31.6015 7.55229 32.7232 9.51463C33.8449 11.477 34.5655 13.6425 34.8431 15.8855L35.8186 12.1966C36.1919 10.7695 35.9841 9.25274 35.2406 7.97863C34.4971 6.70452 33.2786 5.777 31.8522 5.39935L31.8552 5.39785ZM0.998394 20.7145L0.186492 23.7748C-0.192599 25.2029 0.0111652 26.7231 0.752989 28.0011C1.49481 29.2791 2.71397 30.2103 4.14245 30.59L7.30451 31.4331C3.92865 28.78 1.67806 24.953 0.998394 20.7145ZM15.5331 1.05189L12.2209 0.187796C11.513 -0.000708 10.7749 -0.0478976 10.0487 0.0489248C9.32254 0.145747 8.62258 0.384683 7.98884 0.752074C7.35509 1.11946 6.8 1.60811 6.35529 2.19007C5.91058 2.77203 5.58497 3.43589 5.39707 4.14372L4.57016 7.26705C7.29809 3.87314 11.219 1.64974 15.5331 1.05189Z" fill="#1E1E1E"/>
</svg>
