<svg width="195" height="51" viewBox="0 0 195 51" fill="none" xmlns="http://www.w3.org/2000/svg">
<circle cx="25.5" cy="25.5" r="25" stroke="#D9D9D9"/>
<mask id="path-2-inside-1_2002_5398" fill="white">
<path fill-rule="evenodd" clip-rule="evenodd" d="M28.0008 51H190C192.761 51 195 48.7614 195 46V5C195 2.23858 192.761 0 190 0H28.0008V1H190C192.209 1 194 2.79086 194 5V46C194 48.2091 192.209 50 190 50H28.0008V51Z"/>
</mask>
<path d="M28.0008 51H27.0008V52H28.0008V51ZM28.0008 0V-1H27.0008V0H28.0008ZM28.0008 1H27.0008V2H28.0008V1ZM28.0008 50V49H27.0008V50H28.0008ZM190 50H28.0008V52H190V50ZM194 46C194 48.2091 192.209 50 190 50V52C193.314 52 196 49.3137 196 46H194ZM194 5V46H196V5H194ZM190 1C192.209 1 194 2.79086 194 5H196C196 1.68629 193.314 -1 190 -1V1ZM28.0008 1H190V-1H28.0008V1ZM27.0008 0V1H29.0008V0H27.0008ZM190 0H28.0008V2H190V0ZM195 5C195 2.23858 192.761 0 190 0V2C191.657 2 193 3.34314 193 5H195ZM195 46V5H193V46H195ZM190 51C192.761 51 195 48.7614 195 46H193C193 47.6569 191.657 49 190 49V51ZM28.0008 51H190V49H28.0008V51ZM27.0008 50V51H29.0008V50H27.0008Z" fill="#D9D9D9" mask="url(#path-2-inside-1_2002_5398)"/>
<circle cx="25.5" cy="25.5" r="8" stroke="#D9D9D9"/>
</svg>
