<svg width="33" height="33" viewBox="0 0 33 33" fill="none" xmlns="http://www.w3.org/2000/svg">
<g clip-path="url(#clip0_6_52)">
<path d="M13.7582 19.2907C14.191 19.6131 14.6245 19.9367 15.0585 20.2598C14.6054 20.7067 14.1516 21.154 13.7002 21.6006C13.6581 21.6437 13.6188 21.6888 13.5775 21.7327L13.5993 21.4371C13.6513 20.722 13.7036 20.0058 13.7582 19.2907ZM17.3186 12.9866C15.1173 14.3751 12.916 15.7674 10.7135 17.1551C10.6688 17.183 10.6199 17.2048 10.5702 17.2273C10.8586 18.1494 11.147 19.0719 11.4347 19.9947C11.6402 20.6441 11.8533 21.2919 12.0477 21.9439C12.1279 22.2144 12.267 22.3592 12.5603 22.308C12.6417 21.2044 12.7196 20.1017 12.8029 18.9978C12.8124 18.869 12.8277 18.7384 12.8434 18.6097C12.7189 18.5383 12.7735 18.4015 12.8166 18.3564C12.8927 18.2781 12.9687 18.1983 13.0447 18.1188C13.0718 18.0936 13.1001 18.068 13.1264 18.0428C13.1646 18.0031 13.2017 17.9634 13.2395 17.924C13.4217 17.7544 13.6031 17.5818 13.7853 17.4114C13.8892 17.3133 13.9943 17.2147 14.0986 17.1169C14.3812 16.8522 14.6635 16.5879 14.9511 16.3274C15.6822 15.6627 16.4282 15.0134 17.1609 14.3514C18.0948 13.5065 19.0264 12.6585 19.9516 11.804C20.0196 11.7097 20.0635 11.5882 20.1231 11.4843C19.9573 11.5065 19.7629 11.479 19.6311 11.5565C18.8522 12.0206 18.086 12.503 17.3186 12.9866ZM32.1133 16.1112C32.1133 24.9478 24.9497 32.1114 16.1131 32.1114C7.27609 32.1114 0.113281 24.9478 0.113281 16.1112C0.113281 7.27418 7.27609 0.110992 16.1131 0.110992C24.9497 0.110992 32.1133 7.27418 32.1133 16.1112ZM23.2579 9.73678C23.2495 9.67566 23.2434 9.61302 23.2312 9.55305C23.0903 8.87389 22.7182 8.66877 22.052 8.89681C21.9543 8.92966 21.8542 8.95105 21.7549 8.97817C21.3832 9.13173 21.0154 9.29598 20.6384 9.43692C20.0134 9.6726 19.3824 9.893 18.7522 10.1203C18.3679 10.2803 17.9863 10.4476 17.5986 10.5993C16.6272 10.979 15.654 11.3514 14.6811 11.7273C12.6787 12.4992 10.6761 13.2708 8.67221 14.0428C8.22224 14.2166 7.76845 14.3812 7.32307 14.5665C6.93154 14.7281 6.532 14.8847 6.17141 15.1016C6.01175 15.1975 5.83604 15.4496 5.85437 15.6096C5.87194 15.7712 6.11908 15.9095 6.27034 16.0539C6.29785 16.0802 6.34483 16.0886 6.38456 16.1009C7.44607 16.4294 8.50758 16.7579 9.56985 17.0856C9.56412 17.1964 9.57673 17.3094 9.61149 17.4214L9.99766 18.6601L10.5053 20.2854C10.5649 20.4741 10.6249 20.6594 10.6837 20.8446C10.8281 21.2973 10.9782 21.7648 11.1146 22.2224C11.4117 23.2152 12.2131 23.2919 12.4519 23.2919C12.4874 23.2919 12.5252 23.2896 12.5626 23.2881C12.5993 23.2896 12.636 23.2908 12.6723 23.2908C13.2853 23.2908 13.6791 22.9531 13.9137 22.7511C13.9568 22.7132 13.9981 22.6785 14.0279 22.6556C14.0764 22.6193 14.1219 22.5799 14.1608 22.536C14.1914 22.5043 14.2193 22.4715 14.2494 22.4401C14.2987 22.3851 14.3449 22.3336 14.3858 22.2931C14.7422 21.9401 15.0978 21.5883 15.4549 21.2361L15.8782 20.8187C15.9378 20.8599 15.9974 20.9008 16.0573 20.9416C17.0203 21.6605 17.9817 22.3828 18.9481 23.0979C19.6693 23.6311 20.1735 23.4929 20.5226 22.6781C20.6712 21.9909 20.819 21.3022 20.9665 20.6166C21.1017 19.9309 21.2354 19.2472 21.3691 18.5631C21.455 18.1872 21.5398 17.8102 21.6246 17.4347C21.85 16.3759 22.075 15.3159 22.2992 14.2567C22.3721 13.9186 22.4436 13.581 22.5161 13.2429C22.5337 13.1627 22.5547 13.0821 22.5708 13.0011C22.8007 11.9129 23.0291 10.8254 23.2579 9.73678Z" fill="#1E1E1E"/>
</g>
<defs>
<clipPath id="clip0_6_52">
<rect width="33" height="33" fill="white"/>
</clipPath>
</defs>
</svg>
